<svg id="Layer_1" data-name="Layer 1" xmlns="http://www.w3.org/2000/svg" viewBox="0 0 143.21 31.52"><defs><style>.cls-1{font-size:10.74px;font-family:Poppins-ExtraBold, Poppins;font-weight:800;letter-spacing:0.01em;}.cls-1,.cls-2,.cls-3{fill:#4850a0;}.cls-2{font-size:5.23px;font-family:Poppins-Medium, Poppins;font-weight:500;letter-spacing:0.1em;}</style></defs><title>Untitled-1</title><text class="cls-1" transform="translate(33.26 14.83)">COLLEGENEW.COM</text><text class="cls-2" transform="translate(33.04 22.87)">SMART CHOICES FOR BRIGHT FUTURE</text><path class="cls-3" d="M25.36,24.63q.53-.39,1.08-.75c.36-.25.73-.49,1.09-.72l.55-.36.56-.34c.37-.23.74-.46,1.12-.68a.49.49,0,0,1,.69.17l.05.09,0,.07.31.87.31.87c.1.29.2.58.29.87l.3.87.28.88.27.88c.19.58.36,1.17.54,1.76a.78.78,0,0,1-.53,1h-.08l-.77.16-.76.19-.75.23-.37.13L29.2,31a16.06,16.06,0,0,0-2.81,1.41,20.25,20.25,0,0,0-2.55,1.92l-.61.55-.59.56-.58.59c-.19.2-.37.4-.57.6.12-.25.25-.5.38-.74s.28-.49.43-.72.31-.47.46-.7l.5-.68a14.79,14.79,0,0,1,2.41-2.4,14,14,0,0,1,2.95-1.78l.4-.16.41-.16.4-.14.42-.14.83-.22.84-.18-.6,1c-.17-.59-.34-1.18-.5-1.78l-.24-.88L30.34,26c-.08-.3-.15-.6-.22-.9s-.15-.59-.22-.89l-.21-.9-.21-.9.77.33L29,23.25l-.6.24-.61.25-1.23.46C26.19,24.35,25.78,24.5,25.36,24.63Z" transform="translate(-7.32 -6.48)"/><path class="cls-3" d="M31.5,25.1l.42-.16.43-.16.85-.29a.22.22,0,0,1,.28.13l0,.06c.21.58.41,1.15.6,1.74s.37,1.16.54,1.74c.1.3.18.59.26.88s.17.59.25.88q.26.88.48,1.77a.73.73,0,0,1-.52.89.76.76,0,0,1-.26,0h0a13.44,13.44,0,0,0-3.47.1,8.46,8.46,0,0,0-.85.16c-.29.06-.57.12-.85.2l-.43.12-.42.13-.42.14-.42.16a26.59,26.59,0,0,0-3.26,1.51c-1.08.57-2.13,1.21-3.2,1.84a19.55,19.55,0,0,1,2.7-2.6,17.8,17.8,0,0,1,3.22-2l.44-.2L28.3,32c.15-.06.29-.13.45-.18l.45-.16c.31-.1.63-.18.94-.26a7.79,7.79,0,0,1,1-.2,11.87,11.87,0,0,1,3.9,0l-.82.91c-.12-.6-.24-1.2-.35-1.8-.06-.3-.11-.6-.16-.9s-.11-.6-.16-.9c-.1-.6-.19-1.21-.27-1.81s-.17-1.22-.23-1.83l.29.19-.9.07-.45,0Z" transform="translate(-7.32 -6.48)"/><path class="cls-3" d="M34,32.76c.13.21.26.42.38.63l.36.63.33.64.33.65a.45.45,0,0,1-.2.6.45.45,0,0,1-.36,0l-.11,0a9,9,0,0,0-3.18-.6,15.32,15.32,0,0,0-3.27.37c-1.09.22-2.19.53-3.31.85L23.23,37c-.57.15-1.15.3-1.74.41a16.08,16.08,0,0,1,1.47-1c.51-.32,1-.61,1.56-.88a16.86,16.86,0,0,1,3.36-1.31,10.65,10.65,0,0,1,3.7-.36,7.92,7.92,0,0,1,1.86.4,6.78,6.78,0,0,1,1.68.84l-.66.58-.15-.71c-.05-.24-.1-.48-.14-.71s-.09-.48-.12-.72S34,33,34,32.76Z" transform="translate(-7.32 -6.48)"/><path class="cls-3" d="M33.06,37.77A2.81,2.81,0,0,0,32,37.15a6.77,6.77,0,0,0-1.38-.31,16.87,16.87,0,0,0-3-.05c-1,.07-2,.19-3.06.34s-2,.35-3.05.56c1-.34,2-.66,3-.94s2-.54,3.05-.74a17.4,17.4,0,0,1,3.18-.34l.83,0a8.13,8.13,0,0,1,.84.13,4.84,4.84,0,0,1,.87.27,3.71,3.71,0,0,1,.84.47l0,0a.79.79,0,1,1-1,1.25Z" transform="translate(-7.32 -6.48)"/><path class="cls-3" d="M17.62,24.63c-.42-.13-.83-.28-1.25-.43l-1.22-.46-.61-.25-.61-.24-1.2-.51.76-.33-.2.9-.21.9c-.07.3-.15.59-.22.89s-.15.6-.23.9l-.23.89-.24.88c-.16.6-.33,1.19-.5,1.78l-.61-1,.85.18.83.22.41.14.41.14.4.16.4.16a13.86,13.86,0,0,1,3,1.78,14.73,14.73,0,0,1,2.4,2.4l.51.68c.15.23.31.46.46.7s.29.47.43.72.26.49.38.74l-.58-.6-.58-.59-.59-.56-.6-.55a20.25,20.25,0,0,0-2.55-1.92A16.41,16.41,0,0,0,13.78,31l-.37-.14L13,30.68l-.74-.23-.76-.19-.77-.16h0a.77.77,0,0,1-.58-.93s0,0,0-.05c.18-.59.35-1.18.53-1.76l.28-.88.28-.88c.09-.29.19-.58.29-.87l.3-.87.3-.87.32-.87,0-.07a.52.52,0,0,1,.65-.31l.09.05,1.12.68.55.34.55.36c.37.23.74.47,1.1.72Z" transform="translate(-7.32 -6.48)"/><path class="cls-3" d="M11.48,25.1l-.46,0-.45,0L9.67,25l.3-.19c-.07.61-.14,1.22-.23,1.83s-.18,1.21-.28,1.81c0,.3-.1.6-.15.9s-.1.6-.16.9c-.11.6-.23,1.2-.35,1.8L8,31.12a11.87,11.87,0,0,1,3.9,0,7.79,7.79,0,0,1,1,.2c.31.08.63.16.93.26l.46.16c.15,0,.3.12.45.18l.45.18.43.2a17.13,17.13,0,0,1,3.22,2A19.63,19.63,0,0,1,21.49,37c-1.08-.63-2.13-1.27-3.2-1.84A26.72,26.72,0,0,0,15,33.61l-.41-.16-.42-.14-.42-.13-.43-.12c-.28-.08-.57-.14-.85-.2a8.15,8.15,0,0,0-.86-.16,13.37,13.37,0,0,0-3.46-.1h0a.73.73,0,0,1-.8-.65.57.57,0,0,1,0-.26c.15-.59.31-1.18.47-1.77.08-.29.17-.58.25-.88s.17-.58.26-.88c.18-.58.36-1.16.55-1.74s.39-1.16.6-1.74l0-.06a.21.21,0,0,1,.27-.13l.86.29.42.16Z" transform="translate(-7.32 -6.48)"/><path class="cls-3" d="M9,32.76c0,.24-.06.49-.1.73l-.12.72c0,.23-.09.47-.14.71l-.15.71-.67-.58a7,7,0,0,1,1.69-.84,7.84,7.84,0,0,1,1.85-.4,10.71,10.71,0,0,1,3.71.36,16.86,16.86,0,0,1,3.36,1.31c.53.27,1.05.56,1.56.88a17.59,17.59,0,0,1,1.47,1c-.59-.11-1.17-.26-1.74-.41l-1.69-.46c-1.12-.32-2.22-.63-3.32-.85a15.16,15.16,0,0,0-3.26-.37,9.06,9.06,0,0,0-3.19.6l-.1,0a.46.46,0,0,1-.58-.26.5.5,0,0,1,0-.36L8,34.66,8.29,34q.17-.32.36-.63C8.77,33.18,8.89,33,9,32.76Z" transform="translate(-7.32 -6.48)"/><path class="cls-3" d="M8.91,36.57a3.51,3.51,0,0,1,.84-.47,5,5,0,0,1,.86-.27c.29-.06.57-.1.85-.13l.83,0a17.49,17.49,0,0,1,3.18.34c1,.2,2,.45,3,.74s2,.6,3,.94c-1-.21-2-.4-3.06-.56s-2-.27-3.06-.34a16.74,16.74,0,0,0-3,.05,6.62,6.62,0,0,0-1.38.31,2.81,2.81,0,0,0-1.06.62.78.78,0,1,1-1.11-1.11l.07-.07Z" transform="translate(-7.32 -6.48)"/><circle class="cls-3" cx="14.17" cy="8.79" r="3.97"/><path class="cls-3" d="M30.56,9.56,21.7,6.5a.31.31,0,0,0-.19,0L12.34,9.67a.18.18,0,0,0,0,.33l1.44.48v4c0,.17.1.3.22.3h.28c.13,0,.22-.13.22-.3V10.72l3.2,1.06v.62a1.05,1.05,0,0,0,1.05,1.06h5.47a1.05,1.05,0,0,0,1.06-1.06v-.54l5.28-1.76A.28.28,0,0,0,30.56,9.56Z" transform="translate(-7.32 -6.48)"/><path class="cls-3" d="M14.7,15.43a.56.56,0,1,0-.56.56A.56.56,0,0,0,14.7,15.43Z" transform="translate(-7.32 -6.48)"/><path class="cls-3" d="M14.45,16.22a.18.18,0,0,0-.18-.15H14a.17.17,0,0,0-.18.15l-.53,3.31a.74.74,0,0,0,.74.87h.19a.75.75,0,0,0,.74-.87Z" transform="translate(-7.32 -6.48)"/><path class="cls-3" d="M29.87,25.71C27,29.08,22.54,31,21.62,33.56a.14.14,0,0,1-.26,0C20.43,31,16,29.08,13.11,25.71a.56.56,0,0,1,0-.75L15.8,22.3A7.91,7.91,0,0,1,20.41,20a.61.61,0,0,1,.68.7l-.84,5.34a.47.47,0,0,0,.11.38l.81.84a.43.43,0,0,0,.63,0l.81-.84a.44.44,0,0,0,.12-.38l-.85-5.34a.61.61,0,0,1,.69-.7,8,8,0,0,1,4.61,2.28L29.84,25A.57.57,0,0,1,29.87,25.71Z" transform="translate(-7.32 -6.48)"/></svg>